<svg width="223" height="118" viewBox="0 0 223 118" fill="none" xmlns="http://www.w3.org/2000/svg">
<path d="M80.8568 26.9324C79.3773 28.7596 77.9678 30.6495 76.4043 32.4014C71.4079 38.0018 68.932 44.7604 67.8831 51.9826C65.907 65.5801 69.1855 78.0562 77.1355 89.1932C81.844 95.7899 87.9016 100.941 95.1419 104.776C103.189 109.037 111.744 111.104 120.734 110.888C132.974 110.595 143.971 106.5 153.308 98.4938C155.47 96.6399 157.759 94.8134 159.436 92.3909C158.968 94.3105 157.67 95.7147 156.405 96.9646C153.312 100.019 150.299 103.174 146.775 105.777C138.568 111.84 129.457 115.551 119.335 117.052C108.693 118.63 98.5182 117.16 89.0456 112.311C73.8972 104.555 64.3774 92.2173 61.5246 75.3394C58.7438 58.8903 63.3796 44.4573 74.7083 32.1906C75.8311 30.9753 76.8967 29.703 78.0767 28.547C78.8164 27.8227 79.7226 27.2683 80.5537 26.6372L80.8568 26.9324Z" fill="#F5DFFF"/>
<path d="M141.952 26.5264C138.841 25.1012 136.71 22.3172 133.695 20.7024C127.903 17.5999 121.9 15.5015 115.287 14.8954C105.248 13.9751 95.8194 16.0705 87.1196 20.7629C71.9015 28.9722 62.688 41.7546 59.8312 58.9091C57.6932 71.7453 60.5156 83.5615 67.1094 94.6852C68.7282 97.4168 70.8639 99.582 72.8791 101.916C73.2878 102.389 73.9113 102.767 73.6058 103.704C72.2643 103.174 71.3389 102.159 70.505 101.267C62.1219 92.2958 55.858 82.1468 53.6766 69.8528C50.2101 50.3127 55.4652 33.5945 70.3686 20.3291C77.8557 13.6649 86.777 9.75433 96.8395 8.56055C111.349 6.83925 124.303 10.493 135.595 19.7212C137.49 21.2631 139.303 22.9043 141.025 24.6379C141.55 25.1689 142.049 25.6924 141.958 26.5195L141.952 26.5264Z" fill="#F5DFFF"/>
<path d="M144.34 88.6564C144.754 87.1812 146.055 86.3482 146.896 85.1808C152.351 77.6129 155.355 69.3124 155.588 59.8819C155.891 47.6311 152.253 36.7048 144.931 27.1001C136.927 16.6 126.313 9.855 113.238 7.4488C98.818 4.79468 85.4605 7.61468 73.346 15.966C70.8877 17.6607 68.7707 19.7574 66.6571 21.8529C66.1624 22.3431 65.7536 22.9726 64.668 23.2935C65.9718 20.932 67.6334 19.2877 69.3315 17.7129C74.5939 12.8313 80.1724 8.3358 86.8375 5.50711C106.382 -2.78882 125.262 -2.26184 142.631 10.8686C153.191 18.8527 159.497 29.6843 161.519 42.9025C163.838 58.065 159.891 71.4691 150.263 83.2574C148.583 85.3145 146.987 87.5961 144.351 88.6676L144.34 88.6564Z" fill="#F5DFFF"/>
<path d="M83.2871 93.3896C98.8103 104.542 115.331 105.776 132.579 98.4823C142.44 94.3117 150.134 87.4048 155.841 78.3765C167.352 60.1675 167.168 34.4792 150.075 15.4292C151.581 15.565 152.442 16.5353 153.217 17.3669C157.705 22.184 161.669 27.3921 164.501 33.3809C168.925 42.7319 171.044 52.6082 170.148 62.8955C169.226 73.4913 165.363 83.0167 158.375 91.2282C150.5 100.484 140.61 106.338 128.737 108.428C113.452 111.119 99.5854 107.572 87.4228 97.7501C85.8869 96.51 84.4622 95.2054 83.2871 93.3896Z" fill="#F5DFFF"/>
<path d="M141.958 26.5205L142.117 26.6094L141.951 26.5268L141.958 26.5205Z" fill="#F5DFFF"/>
<path d="M144.351 88.6674L144.263 88.8288C144.289 88.7716 144.315 88.7145 144.34 88.6567L144.351 88.6674Z" fill="#F5DFFF"/>
<path d="M150.436 28.7603H148.725L137.909 52.2726H139.753L142.745 45.6562L143.416 44.2098L149.56 30.6393L155.744 44.2098L156.38 45.6562L159.407 52.2726H161.251L150.436 28.7603Z" fill="#350079"/>
<path d="M195.391 28.7603V52.2749H193.98L177.956 31.851V52.2749H176.243V28.7603H177.687L193.677 49.1857V28.7603H195.391Z" fill="#350079"/>
<path d="M213.04 51.3195C211.95 50.7431 211.029 49.892 210.37 48.8504L211.411 47.7081C211.996 48.6108 212.784 49.3644 213.712 49.9088C214.597 50.413 215.599 50.6739 216.617 50.665C218.185 50.665 219.355 50.2113 220.128 49.3039C220.9 48.3965 221.287 47.0025 221.287 45.122V30.0724H212.62V28.5269H223V45.1227C223 47.4745 222.462 49.2436 221.387 50.4301C220.312 51.6166 218.722 52.2101 216.617 52.2107C215.369 52.2174 214.139 51.9109 213.04 51.3195Z" fill="#350079"/>
<path d="M116.881 44.0408C118.651 43.5287 120.011 42.639 120.962 41.3714C121.912 40.1092 122.387 38.5467 122.388 36.6839C122.388 34.1985 121.548 32.2565 119.868 30.8581C118.188 29.4597 115.87 28.7604 112.915 28.7603H104.484V30.3013H112.915C115.425 30.3013 117.34 30.8564 118.661 31.9665C119.982 33.0766 120.643 34.6491 120.644 36.6839C120.644 38.727 119.983 40.3009 118.661 41.4056C117.339 42.514 115.423 43.0672 112.915 43.0651H104.484V52.2726H106.199V44.5824H112.915C113.68 44.5757 114.444 44.5192 115.201 44.4134L120.813 52.2723H122.762L116.881 44.0408Z" fill="#350079"/>
<path d="M78.6762 28.7603H76.9662L66.1494 52.2726H67.9936L70.9856 45.6562L71.6567 44.2098L77.8006 30.6393L83.9843 44.2098L84.6206 45.6562L87.6478 52.2726H89.492L78.6762 28.7603Z" fill="#350079"/>
<path d="M51.1699 28.7603V52.2749H49.457V41.0891H33.737V52.2751H32.0229V28.7605H33.737V39.5777H49.4579V28.7603H51.1699Z" fill="#350079"/>
<path d="M3.64477 51.4866C2.08835 50.8935 0.873424 50.1265 0 49.1856L0.772993 47.9091C1.71653 48.8577 2.85787 49.5863 4.11553 50.0428C5.52311 50.593 7.02202 50.8721 8.5333 50.8655C10.7721 50.8655 12.4628 50.44 13.6055 49.5891C14.143 49.2188 14.5806 48.7215 14.8796 48.1413C15.1785 47.5612 15.3295 46.9162 15.3191 46.2636C15.3191 45.2113 15.0169 44.3715 14.4124 43.7443C13.7802 43.0996 13.0107 42.6058 12.1612 42.2998C10.9743 41.8791 9.76285 41.5313 8.53353 41.2584C7.12673 40.9291 5.74139 40.514 4.38527 40.0156C3.35991 39.6234 2.448 38.9827 1.73135 38.151C1.00316 37.311 0.63929 36.1856 0.639757 34.7748C0.631463 33.6621 0.946452 32.5709 1.54646 31.6338C2.15139 30.6823 3.07513 29.9265 4.31772 29.3665C5.5603 28.8064 7.11081 28.5265 8.96923 28.5269C10.267 28.5266 11.5576 28.7191 12.7989 29.0979C13.9609 29.4351 15.0612 29.9568 16.0577 30.6429L15.4194 32.0204C14.4684 31.3663 13.4195 30.8672 12.312 30.542C11.2281 30.2132 10.1021 30.0436 8.96946 30.0385C6.7972 30.0385 5.15133 30.4748 4.03186 31.3474C3.50038 31.7368 3.07033 32.2483 2.77799 32.8387C2.48566 33.4292 2.33961 34.0813 2.35216 34.74C2.35216 35.7934 2.65456 36.6333 3.25933 37.2598C3.89108 37.9046 4.6603 38.3984 5.50959 38.7043C6.70921 39.1309 7.93182 39.4899 9.17166 39.7795C10.5734 40.1071 11.9531 40.5224 13.3028 41.0228C14.3155 41.4136 15.2198 42.0414 15.9399 42.8535C16.6677 43.6707 17.0315 44.7735 17.0315 46.1621C17.0412 47.2722 16.7196 48.3599 16.108 49.2864C15.4917 50.2268 14.5456 50.977 13.2697 51.5371C11.9937 52.0971 10.4261 52.377 8.56672 52.3767C6.88534 52.3847 5.21687 52.0829 3.64477 51.4866V51.4866Z" fill="#350079"/>
<path d="M135.358 65.2803H137.071V88.7949H135.358V65.2803Z" fill="#350079"/>
<path d="M150.453 87.5689C148.632 86.5638 147.117 85.0833 146.07 83.2853C145.023 81.4296 144.474 79.3354 144.474 77.2052C144.474 75.0749 145.023 72.9807 146.07 71.125C147.117 69.3272 148.632 67.8471 150.453 66.8421C152.377 65.8191 154.521 65.2827 156.7 65.2798C158.878 65.2769 161.024 65.8075 162.95 66.8253C164.773 67.8209 166.289 69.2964 167.333 71.0918C168.38 72.9595 168.929 75.0645 168.929 77.2053C168.929 79.3461 168.38 81.451 167.333 83.3187C166.289 85.1147 164.773 86.5905 162.95 87.5862C161.024 88.604 158.878 89.1346 156.7 89.1317C154.521 89.1288 152.377 88.5924 150.453 87.5694V87.5689ZM162.042 86.209C163.61 85.3353 164.911 84.0522 165.806 82.4967C166.709 80.8796 167.183 79.0581 167.183 77.2059C167.183 75.3536 166.709 73.5322 165.806 71.9151C164.911 70.3597 163.61 69.0767 162.042 68.2032C160.397 67.3211 158.56 66.8596 156.693 66.8596C154.826 66.8596 152.988 67.3211 151.343 68.2032C149.768 69.0727 148.462 70.3563 147.564 71.9151C146.661 73.5322 146.187 75.3536 146.187 77.2059C146.187 79.0581 146.661 80.8796 147.564 82.4967C148.462 84.0556 149.769 85.3394 151.343 86.209C152.988 87.0911 154.826 87.5527 156.693 87.5527C158.56 87.5527 160.398 87.0911 162.043 86.209H162.042Z" fill="#350079"/>
<path d="M179.908 88.2404C178.351 87.6469 177.136 86.8799 176.263 85.9395L177.036 84.6625C177.98 85.6112 179.121 86.3398 180.379 86.7961C181.786 87.3466 183.285 87.6259 184.796 87.6194C187.035 87.6194 188.726 87.1937 189.869 86.3422C190.406 85.972 190.844 85.4748 191.143 84.8947C191.442 84.3146 191.593 83.6697 191.582 83.0172C191.582 81.9649 191.28 81.1251 190.675 80.4979C190.043 79.8531 189.273 79.3592 188.424 79.0529C187.237 78.6324 186.026 78.2848 184.796 78.012C183.389 77.6827 182.004 77.2677 180.648 76.7692C179.622 76.377 178.711 75.7363 177.994 74.9046C177.266 74.0647 176.901 72.9391 176.901 71.5277C176.893 70.415 177.208 69.3238 177.808 68.3867C178.413 67.4352 179.337 66.6794 180.58 66.1194C181.823 65.5593 183.373 65.2793 185.231 65.2793C186.529 65.2793 187.82 65.472 189.061 65.851C190.223 66.1878 191.323 66.7095 192.32 67.3961L191.681 68.7735C190.73 68.1194 189.682 67.6203 188.574 67.2951C187.49 66.9662 186.364 66.7965 185.231 66.7912C183.059 66.7912 181.413 67.228 180.293 68.1015C179.762 68.491 179.332 69.0025 179.04 69.5929C178.748 70.1833 178.602 70.8354 178.614 71.4941C178.614 72.5469 178.917 73.3868 179.521 74.0138C180.153 74.6586 180.922 75.1524 181.772 75.4584C182.971 75.8847 184.194 76.2436 185.433 76.5336C186.835 76.8607 188.215 77.2759 189.565 77.7769C190.578 78.1675 191.482 78.7953 192.202 79.6076C192.929 80.4247 193.293 81.5276 193.294 82.9162C193.303 84.0264 192.982 85.1141 192.37 86.0404C191.754 86.981 190.808 87.7311 189.531 88.2907C188.255 88.8503 186.688 89.1303 184.829 89.1308C183.148 89.1386 181.48 88.8368 179.908 88.2404V88.2404Z" fill="#350079"/>
<path d="M126.595 70.9769C125.543 69.1953 124.013 67.7451 122.177 66.7914C120.288 65.7823 118.122 65.2786 115.679 65.2803H106.374V66.8263H115.545C117.717 66.8263 119.631 67.2571 121.286 68.1186C122.886 68.9278 124.218 70.183 125.12 71.7326C126.001 73.3624 126.462 75.1859 126.462 77.0385C126.462 78.8912 126.001 80.7147 125.12 82.3445C124.219 83.8938 122.887 85.1476 121.286 85.9533C119.631 86.8182 117.717 87.2507 115.545 87.2508H108.089V77.9794H106.374V88.7926H115.679C118.12 88.7926 120.286 88.2889 122.177 87.2814C124.012 86.3296 125.543 84.881 126.595 83.1009C127.631 81.2486 128.176 79.1615 128.176 77.0389C128.176 74.9163 127.631 72.8292 126.595 70.9769V70.9769Z" fill="#350079"/>
<path d="M82.4291 86.3768C80.784 84.6526 79.9614 82.1331 79.9614 78.8185V65.2803H81.6743V78.7509C81.6743 81.6396 82.3349 83.8008 83.6562 85.2345C84.9775 86.6683 86.8923 87.3851 89.4005 87.385C91.8864 87.385 93.79 86.6682 95.1111 85.2345C96.4322 83.8009 97.093 81.6397 97.0935 78.7509V65.2803H98.8063V78.8185C98.8063 82.133 97.9777 84.6524 96.3205 86.3766C94.6632 88.1009 92.3455 88.963 89.3673 88.963C86.3877 88.963 84.0749 88.1009 82.4291 86.3768Z" fill="#350079"/>
<path d="M62.4802 66.8258H54.0151V65.2803H72.659V66.8258H64.193V88.7952H62.4802V66.8258Z" fill="#350079"/>
<path d="M33.3503 88.2402C31.7939 87.6467 30.579 86.8797 29.7056 85.9393L30.4786 84.6623C31.422 85.6111 32.5633 86.3396 33.8211 86.7959C35.2286 87.3465 36.7275 87.6258 38.2389 87.6192C40.4778 87.6192 42.1686 87.1935 43.3111 86.342C43.8486 85.9718 44.2862 85.4746 44.5852 84.8945C44.8841 84.3145 45.0351 83.6695 45.0247 83.017C45.0247 81.9647 44.7225 81.1249 44.118 80.4977C43.4856 79.853 42.7161 79.3591 41.8666 79.0527C40.6797 78.6322 39.4682 78.2846 38.2389 78.0118C36.8321 77.6825 35.4467 77.2675 34.0906 76.769C33.0652 76.3768 32.1533 75.7361 31.4367 74.9044C30.7085 74.0644 30.3446 72.939 30.3451 71.5282C30.3367 70.4155 30.6517 69.3243 31.2518 68.3872C31.8567 67.4357 32.7805 66.6799 34.0231 66.1199C35.2656 65.5598 36.8161 65.2798 38.6746 65.2798C39.9724 65.2798 41.263 65.4725 42.5042 65.8515C43.6664 66.1883 44.7668 66.71 45.7631 67.3966L45.1247 68.774C44.1737 68.1203 43.1249 67.6217 42.0176 67.2968C40.9337 66.9679 39.8077 66.7981 38.675 66.7928C36.5028 66.7928 34.8569 67.2296 33.7374 68.1032C33.2059 68.4925 32.7758 69.004 32.4835 69.5944C32.1911 70.1849 32.0451 70.837 32.0577 71.4957C32.0577 72.5485 32.3601 73.3884 32.9649 74.0155C33.5968 74.6602 34.366 75.1539 35.2152 75.46C36.4149 75.8864 37.6375 76.2454 38.8772 76.5353C40.2791 76.8624 41.659 77.2776 43.0086 77.7786C44.0214 78.1692 44.9257 78.797 45.6457 79.6092C46.3735 80.4264 46.7373 81.5293 46.7373 82.9179C46.7469 84.0279 46.4254 85.1157 45.8138 86.0421C45.1973 86.9827 44.2512 87.7328 42.9754 88.2924C41.6997 88.8519 40.132 89.132 38.2725 89.1324C36.5909 89.1398 34.9224 88.8373 33.3503 88.2402V88.2402Z" fill="#350079"/>
</svg>
